<svg width="1080" height="1080" viewBox="0 0 1080 1080" fill="none" xmlns="http://www.w3.org/2000/svg">
<rect width="1080" height="1080" rx="250" fill="#17C5FF"/>
<path d="M379.189 379.189L485.089 485.089M594.911 485.089L700.811 379.189M379.189 700.811L485.089 594.911M594.911 594.911L700.811 700.811M265.444 187H814.556C857.879 187 893 222.121 893 265.444V814.556C893 857.879 857.879 893 814.556 893H265.444C222.121 893 187 857.879 187 814.556V265.444C187 222.121 222.121 187 265.444 187ZM383.111 363.5C383.111 374.331 374.331 383.111 363.5 383.111C352.669 383.111 343.889 374.331 343.889 363.5C343.889 352.669 352.669 343.889 363.5 343.889C374.331 343.889 383.111 352.669 383.111 363.5ZM736.111 363.5C736.111 374.331 727.331 383.111 716.5 383.111C705.669 383.111 696.889 374.331 696.889 363.5C696.889 352.669 705.669 343.889 716.5 343.889C727.331 343.889 736.111 352.669 736.111 363.5ZM383.111 716.5C383.111 727.331 374.331 736.111 363.5 736.111C352.669 736.111 343.889 727.331 343.889 716.5C343.889 705.669 352.669 696.889 363.5 696.889C374.331 696.889 383.111 705.669 383.111 716.5ZM736.111 716.5C736.111 727.331 727.331 736.111 716.5 736.111C705.669 736.111 696.889 727.331 696.889 716.5C696.889 705.669 705.669 696.889 716.5 696.889C727.331 696.889 736.111 705.669 736.111 716.5ZM618.444 540C618.444 583.324 583.324 618.444 540 618.444C496.676 618.444 461.556 583.324 461.556 540C461.556 496.676 496.676 461.556 540 461.556C583.324 461.556 618.444 496.676 618.444 540Z" stroke="black" stroke-width="49.25" stroke-linecap="round" stroke-linejoin="round"/>
</svg>
