<svg width="655" height="168" viewBox="0 0 655 168" fill="none" xmlns="http://www.w3.org/2000/svg">
<rect width="168" height="168" rx="31.5" fill="#F2521D"/>
<rect x="27.3008" y="71.4004" width="25.2" height="25.2" rx="4.2" fill="white" fill-opacity="0.3"/>
<rect x="71.3984" y="71.4004" width="25.2" height="25.2" rx="4.2" fill="white" fill-opacity="0.6"/>
<rect x="115.5" y="71.4004" width="25.2" height="25.2" rx="4.2" fill="white" fill-opacity="0.9"/>
<path d="M280.135 154.073C278.753 154.073 277.648 153.382 276.818 152L234.118 45.8703C231.078 37.8553 228.452 31.7059 226.241 27.422C225.274 25.6256 223.132 24.2437 219.815 23.2763C216.499 22.1708 213.873 21.6181 211.938 21.6181C211.386 21.6181 211.109 20.5816 211.109 18.5088C211.109 16.5741 211.317 15.3304 211.731 14.7777L223.132 15.3995C229.765 15.8141 234.947 16.0214 238.678 16.0214C240.613 16.0214 250.079 15.6068 267.076 14.7777C267.491 15.3304 267.698 16.5741 267.698 18.5088C267.698 20.5816 267.422 21.6181 266.869 21.6181C264.105 21.6181 261.272 22.2399 258.37 23.4836C255.468 24.7273 254.017 26.5238 254.017 28.873C254.017 31.6368 259.268 45.8013 269.771 71.3663C271.429 75.6502 272.811 79.0359 273.916 81.5233C276.404 88.0182 278.822 93.9603 281.171 99.3497C283.521 104.601 285.455 108.678 286.975 111.58C288.495 114.482 289.256 115.656 289.256 115.103L319.519 43.5902C322.283 36.9571 323.665 32.1896 323.665 29.2876C323.665 26.8002 322.006 24.9346 318.69 23.6909C315.512 22.309 312.264 21.6181 308.948 21.6181C308.395 21.6181 308.118 20.6507 308.118 18.7161C308.257 16.6432 308.464 15.3304 308.74 14.7777C309.984 14.7777 313.301 14.985 318.69 15.3995C324.079 15.8141 328.432 16.0214 331.749 16.0214C335.342 16.0214 339.487 15.8141 344.186 15.3995L354.343 14.7777C354.619 15.6068 354.757 16.6432 354.757 17.8869C354.757 20.2362 354.619 21.4108 354.343 21.4108C352.546 21.4108 350.128 21.9635 347.088 23.0691C344.186 24.0364 341.906 25.4874 340.247 27.422C338.313 30.4622 335.342 36.5425 331.334 45.6631L288.219 146.611C286.146 151.585 283.452 154.073 280.135 154.073ZM360.412 153.451C353.503 153.451 347.837 151.585 343.415 147.854C339.131 143.985 336.989 138.734 336.989 132.101C336.989 127.54 338.44 123.395 341.342 119.664C344.382 115.933 348.597 112.754 353.986 110.129C355.921 109.161 357.648 108.401 359.168 107.848C360.827 107.157 362.347 106.536 363.729 105.983C368.565 104.463 372.573 103.219 375.751 102.252C379.068 101.284 381.417 100.593 382.799 100.179C384.043 99.4879 384.664 98.3824 384.664 96.8623V85.4617C384.664 80.625 383.559 76.8248 381.348 74.061C379.137 71.2972 376.166 69.9153 372.435 69.9153C368.289 69.9153 365.041 71.2281 362.692 73.8538C360.343 76.3412 359.168 79.9341 359.168 84.6325C359.168 87.3963 358.132 89.4692 356.059 90.8511C353.986 92.0948 351.637 92.7166 349.011 92.7166C343.898 92.7166 340.306 91.0584 338.233 87.7418C338.233 84.4253 339.476 81.1778 341.964 77.9994C344.451 74.6829 347.699 71.7118 351.706 69.0862C355.852 66.4606 360.412 64.3878 365.387 62.8677C370.362 61.2094 375.337 60.3803 380.311 60.3803C388.879 60.3803 395.305 62.6604 399.589 67.2206C403.873 71.6427 406.015 79.3122 406.015 90.2292V131.064C406.015 136.73 408.295 139.563 412.855 139.563C414.928 139.563 417.277 138.665 419.903 136.868C420.732 137.006 421.146 137.766 421.146 139.148C421.146 141.774 420.732 143.847 419.903 145.367C417.83 147.025 415.066 148.753 411.611 150.549C408.157 152.345 404.84 153.244 401.662 153.244C398.483 153.244 395.374 152.069 392.334 149.72C389.294 147.371 387.29 144.814 386.323 142.05C385.217 143.018 384.388 143.709 383.835 144.123C383.283 144.538 382.384 145.229 381.141 146.196C378.239 148.131 375.06 149.858 371.605 151.378C368.151 152.76 364.42 153.451 360.412 153.451ZM370.984 139.978C374.715 139.978 377.893 139.01 380.519 137.076C383.283 135.141 384.664 132.93 384.664 130.442V109.299L371.398 113.86C368.22 115.242 365.387 116.9 362.9 118.834C360.412 120.769 359.168 123.533 359.168 127.126C359.168 131.548 360.274 134.795 362.485 136.868C364.696 138.941 367.529 139.978 370.984 139.978ZM463.491 153.244C457.272 153.244 452.228 151.378 448.359 147.647C444.489 143.916 441.657 139.148 439.86 133.344C438.064 127.54 437.165 121.598 437.165 115.518V92.3021C437.165 85.669 436.06 81.2469 433.849 79.0359C432.605 77.5158 431.016 76.4794 429.081 75.9266C427.285 75.2356 425.627 74.8211 424.107 74.6829C422.725 74.5447 422.034 74.3374 422.034 74.061C422.034 70.1917 422.379 68.1189 423.07 67.8425C426.387 67.5661 430.118 67.0825 434.263 66.3915C438.409 65.7006 442.278 65.0096 445.871 64.3187C449.464 63.4895 451.952 62.8677 453.334 62.4531C454.439 62.1767 455.476 61.9003 456.443 61.624C457.41 61.3476 457.963 61.2094 458.101 61.2094C458.792 61.2094 459.276 61.6931 459.552 62.6604C459.967 63.6277 460.174 64.3878 460.174 64.9405C458.93 74.1992 458.308 80.2796 458.308 83.1816V108.056C458.308 118.834 459.829 126.573 462.869 131.272C465.909 135.97 470.815 138.319 477.586 138.319C482.008 138.319 485.739 137.006 488.779 134.381C491.819 131.617 493.34 128.991 493.34 126.504V92.3021C493.34 85.669 492.234 81.2469 490.023 79.0359C488.779 77.5158 487.19 76.4794 485.255 75.9266C483.459 75.3738 481.801 75.0284 480.281 74.8902C478.899 74.6138 478.208 74.3374 478.208 74.061C478.208 70.0535 478.622 67.9807 479.451 67.8425C482.077 67.5661 485.394 67.0825 489.401 66.3915C493.409 65.7006 497.485 64.9405 501.631 64.1114C505.915 63.1441 509.577 62.3149 512.617 61.624L514.275 61.2094C514.966 61.2094 515.519 61.6931 515.934 62.6604C516.348 63.6277 516.486 64.3878 516.348 64.9405C515.795 69.639 515.381 73.5083 515.104 76.5484C514.828 79.4504 514.69 81.5233 514.69 82.767V123.809C514.69 127.264 514.828 130.235 515.104 132.723C515.381 135.21 515.795 137.076 516.348 138.319C516.901 139.425 518.006 140.185 519.665 140.599C521.323 140.876 522.912 141.014 524.432 141.014C526.09 141.014 527.127 141.083 527.541 141.221C528.094 141.359 528.371 141.981 528.371 143.087C528.371 143.64 528.232 144.607 527.956 145.989C527.68 147.232 527.265 147.854 526.712 147.854C523.672 147.854 519.112 148.407 513.032 149.513C507.089 150.618 500.94 151.862 494.583 153.244C493.616 153.244 493.132 152.138 493.132 149.927V140.807C493.132 140.116 492.925 139.77 492.51 139.77C489.332 143.225 485.117 146.334 479.866 149.098C474.615 151.862 469.156 153.244 463.491 153.244ZM533.611 152.622C533.058 152.069 532.782 150.756 532.782 148.683C532.782 146.749 533.058 145.781 533.611 145.781C534.716 145.781 536.167 145.505 537.964 144.952C539.76 144.4 541.418 143.709 542.939 142.879C544.597 142.05 545.495 141.359 545.633 140.807C546.186 138.457 546.601 135.97 546.877 133.344C547.153 130.719 547.292 128.093 547.292 125.468V39.2372C547.292 33.986 546.877 29.2876 546.048 25.1419C545.495 22.9309 542.04 21.8253 535.684 21.8253H533.611C532.782 21.8253 532.367 20.9962 532.367 19.3379C532.367 17.1269 532.782 16.0214 533.611 16.0214C541.211 15.3304 548.052 14.1558 554.132 12.4975C560.35 10.8393 564.496 9.59556 566.569 8.76642L568.02 8.14457H568.435C568.987 8.14457 569.54 8.55914 570.093 9.38828C570.784 10.2174 571.198 10.9084 571.337 11.4611C569.678 16.5741 568.849 23.0691 568.849 30.9459V122.151C568.849 130.857 569.333 137.076 570.3 140.807C570.576 141.359 571.475 142.05 572.995 142.879C574.515 143.709 576.173 144.4 577.97 144.952C579.766 145.505 581.01 145.781 581.701 145.781C582.115 145.781 582.323 146.749 582.323 148.683C582.461 150.618 582.392 151.931 582.115 152.622C577.831 152.345 573.478 152.069 569.056 151.793C564.634 151.516 560.972 151.378 558.07 151.378C553.786 151.378 549.364 151.516 544.804 151.793C540.382 152.069 536.651 152.345 533.611 152.622ZM625.496 153.451C618.31 153.451 612.161 151.171 607.047 146.611C602.073 141.912 599.585 134.726 599.585 125.053V74.8902H586.941C585.974 74.8902 585.49 73.0937 585.49 69.5008C585.49 68.3953 585.559 67.7734 585.697 67.6352C588.461 66.3915 591.156 64.8714 593.781 63.075C596.407 61.1403 599.032 58.9984 601.658 56.6491C605.666 52.6416 608.913 49.1869 611.4 46.2849C613.888 43.2447 615.132 41.7247 615.132 41.7247C615.823 41.7247 616.513 41.7938 617.204 41.9319C617.895 41.9319 618.517 42.001 619.07 42.1392C620.314 42.5538 620.936 42.9684 620.936 43.3829V63.6968H636.067C639.246 63.6968 641.664 63.7659 643.322 63.9041C645.119 63.9041 646.086 63.9041 646.224 63.9041C647.33 63.9041 647.883 64.5259 647.883 65.7697C647.883 69.2244 647.192 72.2646 645.81 74.8902H620.936V124.846C620.936 130.373 622.11 134.588 624.459 137.49C626.809 140.392 630.056 141.843 634.202 141.843C637.104 141.843 639.798 141.29 642.286 140.185C644.773 138.941 646.155 138.319 646.432 138.319C646.984 138.181 647.606 138.803 648.297 140.185C648.988 141.567 649.264 142.465 649.126 142.879C648.573 144.123 646.984 145.574 644.359 147.232C641.871 148.891 638.9 150.342 635.445 151.585C632.129 152.829 628.812 153.451 625.496 153.451Z" fill="black"/>
</svg>
